<?xml version="1.0" encoding="utf-8"?>
<!-- Generator: Adobe Illustrator 21.0.0, SVG Export Plug-In . SVG Version: 6.00 Build 0)  -->
<svg version="1.1" id="Layer_1" xmlns="http://www.w3.org/2000/svg" xmlns:xlink="http://www.w3.org/1999/xlink" x="0px" y="0px"
	 viewBox="0 0 500 500" style="enable-background:new 0 0 500 500;" xml:space="preserve">
<style type="text/css">
	.st0{fill:#8558C4;}
	.st1{fill:#6D46AA;}
	.st2{fill:#F5F8F1;}
	.st3{fill:#EAEAEA;}
	.st4{fill:#EDEDED;}
	.st5{fill:#101111;}
	.st6{fill:#A3A3A3;}
	.st7{fill:#CCCCCC;}
	.st8{fill:#D6D6D6;}
	.st9{fill:#60B29E;}
	.st10{fill:#ADADAD;}
	.st11{fill:#D3D3D3;}
	.st12{fill:#212223;}
	.st13{fill:#3C3E3F;}
	.st14{fill:#E5E5E5;}
	.st15{fill:#FFFFFF;}
	.st16{fill:#F2F2F2;}
	.st17{fill:#5E6063;}
	.st18{fill:#D8E6E3;}
	.st19{fill:none;stroke:#D8E6E3;stroke-width:1.1999;stroke-miterlimit:22.9256;}
	.st20{fill:#F1F2F2;}
	.st21{fill:none;stroke:#FFFFFF;stroke-width:3;stroke-miterlimit:10;}
	.st22{fill:#232323;}
	.st23{fill:#3A3A3A;}
	.st24{fill:#A8AAAD;}
	.st25{fill:#F49461;}
	.st26{fill:#DBCCB8;}
	.st27{fill:#FFF6B1;}
	.st28{fill:#E16162;}
	.st29{fill-rule:evenodd;clip-rule:evenodd;fill:#FFFFFF;}
	.st30{fill-rule:evenodd;clip-rule:evenodd;fill:#D8D8D8;}
	.st31{clip-path:url(#XMLID_3_);}
	.st32{fill-rule:evenodd;clip-rule:evenodd;fill:#E8C7AF;}
	.st33{fill:#515A62;}
</style>
<rect x="0.1" y="0.5" class="st0" width="500" height="500"/>
<path class="st1" d="M434.4,379.6c0,0.2-0.1,0.4-0.2,0.6c-1,2.5-3.8,3.8-6.4,2.8c-2.5-1-3.8-3.8-2.8-6.4c0.1-0.2,0.2-0.4,0.3-0.5
	l-4-1.5c0,0.2-0.1,0.4-0.2,0.6c-1,2.5-3.8,3.8-6.4,2.8c-2.5-1-3.8-3.8-2.8-6.4c0.1-0.2,0.2-0.4,0.3-0.5l-4.9-1.9
	c0,0.2-0.1,0.4-0.2,0.6c-1,2.5-3.8,3.8-6.4,2.8c-2.5-1-3.8-3.8-2.8-6.4c0.1-0.2,0.2-0.4,0.3-0.5l-4.9-1.9c0,0.2-0.1,0.4-0.2,0.6
	c-1,2.5-3.8,3.8-6.4,2.8c-2.5-1-3.8-3.8-2.8-6.4c0.1-0.2,0.2-0.4,0.3-0.5l-4.9-1.9c0,0.2-0.1,0.4-0.2,0.6c-1,2.5-3.8,3.8-6.4,2.8
	c-2.5-1-3.8-3.8-2.8-6.4c0.1-0.2,0.2-0.4,0.3-0.5l-4.9-1.9c0,0.2-0.1,0.4-0.2,0.6c-1,2.5-3.8,3.8-6.4,2.8c-2.5-1-3.8-3.8-2.8-6.4
	c0.1-0.2,0.2-0.4,0.3-0.5l-5-1.9l-46.3,121.7l88.4,33.6l46.3-121.7L434.4,379.6z"/>
<path class="st2" d="M430.9,375.3c0,0.2-0.1,0.4-0.2,0.6c-1,2.5-3.8,3.8-6.4,2.8c-2.5-1-3.8-3.8-2.8-6.4c0.1-0.2,0.2-0.4,0.3-0.5
	l-4-1.5c0,0.2-0.1,0.4-0.2,0.6c-1,2.5-3.8,3.8-6.4,2.8c-2.5-1-3.8-3.8-2.8-6.4c0.1-0.2,0.2-0.4,0.3-0.5l-4.9-1.9
	c0,0.2-0.1,0.4-0.2,0.6c-1,2.5-3.8,3.8-6.4,2.8c-2.5-1-3.8-3.8-2.8-6.4c0.1-0.2,0.2-0.4,0.3-0.5l-4.9-1.9c0,0.2-0.1,0.4-0.2,0.6
	c-1,2.5-3.8,3.8-6.4,2.8c-2.5-1-3.8-3.8-2.8-6.4c0.1-0.2,0.2-0.4,0.3-0.5l-4.9-1.9c0,0.2-0.1,0.4-0.2,0.6c-1,2.5-3.8,3.8-6.4,2.8
	c-2.5-1-3.8-3.8-2.8-6.4c0.1-0.2,0.2-0.4,0.3-0.5l-4.9-1.9c0,0.2-0.1,0.4-0.2,0.6c-1,2.5-3.8,3.8-6.4,2.8c-2.5-1-3.8-3.8-2.8-6.4
	c0.1-0.2,0.2-0.4,0.3-0.5l-5-1.9l-46.3,121.7l88.4,33.6l46.3-121.7L430.9,375.3z"/>
<path class="st1" d="M376.1,379.1H147.2c-9.7,0-17.6-7.9-17.6-17.6V176.3c0-9.7,7.9-17.6,17.6-17.6h228.9c9.7,0,17.6,7.9,17.6,17.6
	v185.2C393.7,371.2,385.8,379.1,376.1,379.1z"/>
<g>
	<path class="st3" d="M384.6,179.7c0-6.5-7.3-11.8-16.2-11.8H139.2c-8.9,0-16.2,5.3-16.2,11.8v98.4l5.4,76.2
		c0,6.5,7.3,11.8,16.2,11.8H363c8.9,0,16.2-5.3,16.2-11.8l5.4-74.9V179.7z"/>
	<g>
		<g>
			<path class="st4" d="M381.7,145.6c0,1.7-1.5,3.1-3.4,3.1H121.4c-1.9,0-3.4-1.4-3.4-3.1c0-1.7,1.5-3.1,3.4-3.1h256.8
				C380.1,142.5,381.7,143.9,381.7,145.6z"/>
			<g>
				
					<rect x="76.9" y="182.7" transform="matrix(0.102 -0.9948 0.9948 0.102 -79.7831 283.692)" class="st4" width="80.7" height="6.7"/>
				<polygon class="st4" points="116.5,226.5 102.5,224.6 109.2,201.2 119.3,199.2 				"/>
			</g>
		</g>
		<g>
			<path class="st5" d="M372.3,154.5c0,0.2-0.3,0.4-0.6,0.4h-237c-0.3,0-0.6-0.2-0.6-0.4v-17.1c0-0.2,0.3-0.4,0.6-0.4h237
				c0.3,0,0.6,0.2,0.6,0.4V154.5z"/>
			<path class="st6" d="M374.8,141.7c0-0.2-0.3-0.4-0.6-0.4h-1.4c-0.3,0-0.6,0.2-0.6,0.4v8.5c0,0.2,0.3,0.4,0.6,0.4h1.4
				c0.3,0,0.6-0.2,0.6-0.4V141.7z"/>
			<path class="st6" d="M134.1,141.7c0-0.2-0.2-0.4-0.6-0.4h-1.4c-0.3,0-0.6,0.2-0.6,0.4v8.5c0,0.2,0.3,0.4,0.6,0.4h1.4
				c0.3,0,0.6-0.2,0.6-0.4V141.7z"/>
		</g>
		<rect x="375.8" y="137" class="st7" width="7.8" height="17.9"/>
	</g>
	<path class="st8" d="M378.9,186.5c0-6.1-7-11-15.5-11H145c-8.5,0-15.5,5-15.5,11v91.7l5.2,71c0,6.1,7,11,15.5,11h208.1
		c8.5,0,15.5-5,15.5-11l5.2-69.8V186.5z"/>
	<path class="st9" d="M369.6,256.6"/>
	<path class="st10" d="M361.3,160.6c0-6.5-6-11.8-13.3-11.8H160.5c-7.3,0-13.3,5.3-13.3,11.8v98.5l4.4,76.3c0,6.5,6,11.8,13.3,11.8
		h178.7c7.3,0,13.3-5.3,13.3-11.8l4.4-75V160.6z"/>
	<path class="st11" d="M408.4,167.9c0,2-1.8,3.7-4,3.7H102c-2.2,0-4-1.7-4-3.7c0-2,1.8-3.7,4-3.7h302.3
		C406.5,164.2,408.4,165.9,408.4,167.9z"/>
	<path class="st12" d="M397,183.2c0,0.4-0.3,0.7-0.7,0.7H110c-0.4,0-0.7-0.3-0.7-0.7v-30.6c0-0.4,0.3-0.7,0.7-0.7h286.3
		c0.4,0,0.7,0.3,0.7,0.7V183.2z"/>
	<path class="st13" d="M400,160.3c0-0.4-0.3-0.7-0.7-0.7h-1.7c-0.4,0-0.7,0.3-0.7,0.7v15.2c0,0.4,0.3,0.7,0.7,0.7h1.7
		c0.4,0,0.7-0.3,0.7-0.7V160.3z"/>
	<path class="st13" d="M109.4,160.3c0-0.4-0.3-0.7-0.7-0.7H107c-0.4,0-0.7,0.3-0.7,0.7v15.2c0,0.4,0.3,0.7,0.7,0.7h1.7
		c0.4,0,0.7-0.3,0.7-0.7V160.3z"/>
	<rect x="95.5" y="151.9" class="st14" width="8.1" height="31.9"/>
	<rect x="402.6" y="151.9" class="st14" width="8.1" height="31.9"/>
	<g>
		<g>
			<g>
				<circle class="st15" cx="352.4" cy="309.2" r="8.2"/>
				<circle class="st15" cx="332.3" cy="309.2" r="8.2"/>
				<circle class="st15" cx="312.2" cy="309.2" r="8.2"/>
				<circle class="st15" cx="292.1" cy="309.2" r="8.2"/>
				<circle class="st15" cx="272" cy="309.2" r="8.2"/>
				<circle class="st15" cx="252" cy="309.2" r="8.2"/>
				<circle class="st15" cx="231.9" cy="309.2" r="8.2"/>
				<circle class="st15" cx="211.8" cy="309.2" r="8.2"/>
				<circle class="st15" cx="191.7" cy="309.2" r="8.2"/>
				<circle class="st15" cx="171.6" cy="309.2" r="8.2"/>
				<circle class="st15" cx="151.5" cy="309.2" r="8.2"/>
			</g>
			<g>
				<ellipse class="st15" cx="363.5" cy="268.6" rx="8.2" ry="8.2"/>
				<circle class="st15" cx="343.6" cy="268.6" r="8.2"/>
				<circle class="st15" cx="323.6" cy="268.6" r="8.2"/>
				<circle class="st15" cx="303.6" cy="268.6" r="8.2"/>
				<circle class="st15" cx="283.7" cy="268.6" r="8.2"/>
				<ellipse class="st15" cx="263.7" cy="268.6" rx="8.2" ry="8.2"/>
				<circle class="st15" cx="243.7" cy="268.6" r="8.2"/>
				<circle class="st15" cx="223.8" cy="268.6" r="8.2"/>
				<circle class="st15" cx="203.8" cy="268.6" r="8.2"/>
				<circle class="st15" cx="183.8" cy="268.6" r="8.2"/>
				<circle class="st15" cx="163.9" cy="268.6" r="8.2"/>
				<circle class="st15" cx="143.9" cy="268.6" r="8.2"/>
			</g>
			<g>
				<circle class="st15" cx="354.1" cy="329.5" r="8.2"/>
				<circle class="st15" cx="334" cy="329.5" r="8.2"/>
				<circle class="st15" cx="314" cy="329.5" r="8.2"/>
				<circle class="st15" cx="293.9" cy="329.5" r="8.2"/>
				<circle class="st15" cx="273.8" cy="329.5" r="8.2"/>
				<circle class="st15" cx="253.7" cy="329.5" r="8.2"/>
				<circle class="st15" cx="233.6" cy="329.5" r="8.2"/>
				<circle class="st15" cx="213.6" cy="329.5" r="8.2"/>
				<circle class="st15" cx="193.5" cy="329.5" r="8.2"/>
				<circle class="st15" cx="173.4" cy="329.5" r="8.2"/>
				<circle class="st15" cx="153.3" cy="329.5" r="8.2"/>
			</g>
			<g>
				<circle class="st15" cx="355.9" cy="288.9" r="8.2"/>
				<circle class="st15" cx="335.8" cy="288.9" r="8.2"/>
				<circle class="st15" cx="315.7" cy="288.9" r="8.2"/>
				<circle class="st15" cx="295.6" cy="288.9" r="8.2"/>
				<ellipse class="st15" cx="275.6" cy="288.9" rx="8.2" ry="8.2"/>
				<circle class="st15" cx="255.5" cy="288.9" r="8.2"/>
				<circle class="st15" cx="235.4" cy="288.9" r="8.2"/>
				<circle class="st15" cx="215.3" cy="288.9" r="8.2"/>
				<circle class="st15" cx="195.2" cy="288.9" r="8.2"/>
				<ellipse class="st15" cx="175.2" cy="288.9" rx="8.2" ry="8.2"/>
				<circle class="st15" cx="155.1" cy="288.9" r="8.2"/>
			</g>
			<path class="st15" d="M325.1,347.6c0-3.2-2.6-5.9-5.9-5.9H187.9c-3.2,0-5.9,2.6-5.9,5.9v0.6c0,3.2,2.6,5.9,5.9,5.9h131.4
				c3.2,0,5.9-2.6,5.9-5.9V347.6z"/>
		</g>
	</g>
	<rect x="122.7" y="188.5" class="st3" width="262" height="62.3"/>
	<rect x="179" y="56.5" class="st16" width="158.4" height="134.9"/>
	<path class="st17" d="M262.8,171h-7.6h-7.6c0,0-16.3,19.1-39.6,19.1l10.8,25.7l36.4,13.3l36.4-13.3l10.8-25.7
		C279.1,190.2,262.8,171,262.8,171z"/>
	<g>
		<g>
			<path class="st18" d="M242.2,186.9l-28,11c-0.1-0.1-0.1-0.2-0.2-0.4l28-11C242.1,186.7,242.2,186.8,242.2,186.9z"/>
			<path class="st18" d="M242.8,187.7l-27,12.7c-0.1-0.1-0.2-0.2-0.2-0.3l27-12.7C242.6,187.5,242.7,187.6,242.8,187.7z"/>
			<path class="st18" d="M243.3,188.5l-25.8,14.3c-0.1-0.1-0.2-0.2-0.3-0.3l25.8-14.3C243.2,188.2,243.2,188.4,243.3,188.5z"/>
			<path class="st18" d="M243.9,189.2L219.4,205c-0.1-0.1-0.2-0.2-0.3-0.3l24.6-15.8C243.8,189,243.9,189.1,243.9,189.2z"/>
			<path class="st18" d="M244.6,189.8L221.4,207c-0.1-0.1-0.2-0.2-0.3-0.3l23.2-17.2C244.4,189.6,244.5,189.7,244.6,189.8z"/>
			<path class="st18" d="M245.3,190.4l-21.8,18.5c-0.1-0.1-0.2-0.2-0.3-0.3l21.8-18.5C245.1,190.2,245.2,190.3,245.3,190.4z"/>
			<path class="st18" d="M246,191l-20.3,19.6c-0.1-0.1-0.2-0.2-0.3-0.2l20.3-19.6C245.8,190.8,245.9,190.9,246,191z"/>
			<path class="st18" d="M246.8,191.5L228,212.2c-0.1-0.1-0.2-0.1-0.3-0.2l18.8-20.7C246.5,191.3,246.7,191.4,246.8,191.5z"/>
			<path class="st18" d="M247.5,191.9l-17.2,21.6c-0.1-0.1-0.2-0.1-0.4-0.2l17.2-21.6C247.3,191.8,247.4,191.8,247.5,191.9z"/>
			<path class="st18" d="M248.3,192.3l-15.6,22.5c-0.1-0.1-0.2-0.1-0.4-0.2l15.6-22.5C248.1,192.2,248.2,192.2,248.3,192.3z"/>
			<path class="st18" d="M249.1,192.6l-14,23.3c-0.1-0.1-0.2-0.1-0.4-0.2l14-23.3C248.9,192.5,249,192.6,249.1,192.6z"/>
			<path class="st18" d="M249.9,192.9l-12.3,23.9c-0.1,0-0.3-0.1-0.4-0.1l12.3-23.9C249.7,192.9,249.8,192.9,249.9,192.9z"/>
			<path class="st18" d="M250.7,193.2l-10.6,24.5c-0.1,0-0.3-0.1-0.4-0.1l10.6-24.5C250.5,193.1,250.6,193.2,250.7,193.2z"/>
			<path class="st18" d="M251.5,193.4l-8.9,24.9c-0.1,0-0.3-0.1-0.4-0.1l8.9-24.9C251.3,193.4,251.4,193.4,251.5,193.4z"/>
			<path class="st18" d="M252.4,193.6l-7.2,25.3c-0.1,0-0.3-0.1-0.4-0.1l7.2-25.3C252.1,193.5,252.2,193.6,252.4,193.6z"/>
			<path class="st18" d="M253.2,193.7l-5.5,25.6c-0.1,0-0.3,0-0.4-0.1l5.5-25.6C252.9,193.7,253,193.7,253.2,193.7z"/>
			<path class="st18" d="M254,193.8l-3.8,25.8c-0.1,0-0.3,0-0.4,0l3.8-25.8C253.7,193.8,253.9,193.8,254,193.8z"/>
			<path class="st18" d="M254.8,193.9l-2.1,26c-0.1,0-0.3,0-0.4,0l2.1-26C254.5,193.9,254.7,193.9,254.8,193.9z"/>
			<path class="st18" d="M255.6,193.9l-0.4,26c-0.1,0-0.3,0-0.4,0l0.4-26C255.3,193.9,255.5,193.9,255.6,193.9L255.6,193.9z"/>
			<path class="st18" d="M256.4,193.9l1.3,26c-0.1,0-0.3,0-0.4,0l-1.3-26C256.2,193.9,256.3,193.9,256.4,193.9z"/>
			<path class="st18" d="M257.3,193.8l3,25.9c-0.1,0-0.3,0-0.4,0l-3-25.9C257,193.8,257.1,193.8,257.3,193.8z"/>
			<path class="st18" d="M258.1,193.7l4.7,25.8c-0.1,0-0.3,0-0.4,0.1l-4.7-25.8C257.8,193.7,257.9,193.7,258.1,193.7z"/>
			<path class="st18" d="M258.9,193.6l6.4,25.5c-0.1,0-0.3,0-0.4,0.1l-6.4-25.5C258.6,193.6,258.8,193.6,258.9,193.6z"/>
			<path class="st18" d="M259.7,193.4l8.1,25.2c-0.1,0-0.3,0.1-0.4,0.1l-8.1-25.2C259.4,193.5,259.6,193.4,259.7,193.4z"/>
			<path class="st18" d="M260.5,193.2l9.8,24.7c-0.1,0-0.3,0.1-0.4,0.1l-9.8-24.7C260.3,193.3,260.4,193.2,260.5,193.2z"/>
			<path class="st18" d="M261.3,192.9l11.4,24.2c-0.1,0-0.3,0.1-0.4,0.1l-11.4-24.2C261.1,193,261.2,193,261.3,192.9z"/>
			<path class="st18" d="M262.1,192.6l13.1,23.6c-0.1,0.1-0.3,0.1-0.4,0.1l-13.1-23.6C261.9,192.7,262,192.7,262.1,192.6z"/>
			<path class="st18" d="M262.9,192.3l14.8,22.9c-0.1,0.1-0.2,0.1-0.4,0.2l-14.8-22.9C262.7,192.4,262.8,192.3,262.9,192.3z"/>
			<path class="st18" d="M263.7,191.9l16.4,22.1c-0.1,0.1-0.2,0.1-0.4,0.2l-16.4-22.1C263.4,192,263.6,191.9,263.7,191.9z"/>
			<path class="st18" d="M264.4,191.4l18,21.2c-0.1,0.1-0.2,0.1-0.4,0.2l-18-21.2C264.2,191.6,264.3,191.5,264.4,191.4z"/>
			<path class="st18" d="M265.2,190.9l19.5,20.2c-0.1,0.1-0.2,0.2-0.3,0.2l-19.5-20.2C264.9,191.1,265.1,191,265.2,190.9z"/>
			<path class="st18" d="M265.9,190.4l21.1,19.1c-0.1,0.1-0.2,0.2-0.3,0.3l-21.1-19.1C265.7,190.6,265.8,190.5,265.9,190.4z"/>
			<path class="st18" d="M266.6,189.8l22.5,17.9c-0.1,0.1-0.2,0.2-0.3,0.3l-22.5-17.9C266.4,190,266.5,189.9,266.6,189.8z"/>
			<path class="st18" d="M267.2,189.2l23.9,16.5c-0.1,0.1-0.2,0.2-0.3,0.3l-23.9-16.5C267,189.4,267.1,189.3,267.2,189.2z"/>
			<path class="st18" d="M267.9,188.5l25.2,15.1c-0.1,0.1-0.2,0.2-0.3,0.3l-25.2-15.1C267.7,188.7,267.8,188.6,267.9,188.5z"/>
			<path class="st18" d="M268.4,187.7l26.4,13.6c-0.1,0.1-0.2,0.2-0.2,0.3L268.2,188C268.3,187.9,268.3,187.8,268.4,187.7z"/>
			<path class="st18" d="M268.9,186.9l27.5,11.9c-0.1,0.1-0.1,0.2-0.2,0.3l-27.5-11.9C268.8,187.1,268.9,187,268.9,186.9z"/>
			<path class="st18" d="M269.4,186.1l28.5,10.2c-0.1,0.1-0.1,0.2-0.2,0.4l-28.5-10.2C269.3,186.3,269.3,186.2,269.4,186.1z"/>
			<path class="st18" d="M241.8,186.1l-28.9,9.3c-0.1-0.1-0.1-0.2-0.2-0.4l28.9-9.3C241.7,185.8,241.7,185.9,241.8,186.1z"/>
		</g>
		<g>
			<path class="st18" d="M294,201.3v-0.5l0.9,0.5c-0.1,0.1-0.2,0.2-0.2,0.3L294,201.3L294,201.3z M294,198.2v-0.4l2.5,1.1
				c-0.1,0.1-0.1,0.2-0.2,0.3L294,198.2L294,198.2z M294,195.3v-0.4l3.9,1.4c-0.1,0.1-0.1,0.2-0.2,0.4L294,195.3z M294,194.9v0.4
				l-2.5-0.9c0-0.1,0.1-0.1,0.1-0.2l0.1-0.2L294,194.9L294,194.9z M294,197.8v0.4l-3-1.3v-0.4L294,197.8L294,197.8z M294,200.8v0.5
				l-3-1.5v-0.5L294,200.8L294,200.8z M290.9,205.9v-0.3l0.2,0.1L290.9,205.9L290.9,205.9z M290.9,202.8v-0.5l2.1,1.3
				c-0.1,0.1-0.2,0.2-0.3,0.3L290.9,202.8z M290.9,196.5v0.4l-0.7-0.3c0.1-0.1,0.1-0.2,0.2-0.3L290.9,196.5L290.9,196.5z
				 M290.9,199.3v0.5l-2.1-1.1c0.1-0.1,0.2-0.2,0.2-0.3L290.9,199.3L290.9,199.3z M290.9,202.3v0.5l-2.8-1.6v-0.5L290.9,202.3
				L290.9,202.3z M290.9,205.6v0.3l-0.1,0.1l-2.7-1.8v-0.5L290.9,205.6L290.9,205.6z M288.2,207.5V207l0.9,0.7
				c-0.1,0.1-0.2,0.2-0.3,0.3L288.2,207.5z M288.2,200.7v0.5l-0.9-0.5c0.1-0.1,0.2-0.2,0.3-0.3L288.2,200.7L288.2,200.7z
				 M288.2,203.7v0.5l-1.9-1.3v-0.5L288.2,203.7L288.2,203.7z M288.2,207v0.5l-1.9-1.5v-0.5L288.2,207L288.2,207z M286.3,209.4v-0.5
				l0.7,0.6c-0.1,0.1-0.2,0.2-0.3,0.3L286.3,209.4z M286.3,202.3v0.5l-0.7-0.5c0.1-0.1,0.2-0.2,0.3-0.3L286.3,202.3L286.3,202.3z
				 M286.3,205.4v0.5l-2-1.6v-0.5L286.3,205.4L286.3,205.4z M286.3,208.9v0.5l-2-1.8v-0.5L286.3,208.9L286.3,208.9z M284.3,211.3
				v-0.6l0.4,0.4C284.6,211.2,284.5,211.3,284.3,211.3L284.3,211.3z M284.3,203.9v0.5l-0.4-0.3c0.1-0.1,0.2-0.2,0.3-0.3L284.3,203.9
				L284.3,203.9z M284.3,207.1v0.5l-2.1-1.9v-0.3l0.1-0.1L284.3,207.1L284.3,207.1z M284.3,210.7v0.6l-2.1-2.1v-0.6L284.3,210.7
				L284.3,210.7z M282.2,212.8v-0.3l0.2,0.2L282.2,212.8z M282.2,205.4v0.3l-0.2-0.2L282.2,205.4L282.2,205.4z M282.2,208.6v0.6
				l-1-1v-0.6L282.2,208.6L282.2,208.6z M282.2,212.4v0.3l-0.2,0.1l-0.8-0.9v-0.6L282.2,212.4z M281.3,207.6v0.6l-1.2-1.2
				c0.1-0.1,0.2-0.2,0.3-0.2L281.3,207.6L281.3,207.6z M281.3,211.3v0.6l-2.2-2.6v-0.6L281.3,211.3L281.3,211.3z M279.1,213.4v-0.7
				l1,1.3c-0.1,0.1-0.2,0.1-0.4,0.2L279.1,213.4z M279.1,208.7v0.6l-1-1.1c0.1-0.1,0.2-0.1,0.4-0.2L279.1,208.7L279.1,208.7z
				 M279.1,212.7v0.7l-2.2-3v-0.7L279.1,212.7L279.1,212.7z M276.9,214.7V214l0.8,1.2c-0.1,0.1-0.2,0.1-0.4,0.2L276.9,214.7z
				 M276.9,209.7v0.7l-0.8-1c0.1-0.1,0.2-0.1,0.4-0.2L276.9,209.7L276.9,209.7z M276.9,214v0.7l-2.2-3.5v-0.7L276.9,214L276.9,214z
				 M274.6,216v-0.8l0.6,1c-0.1,0.1-0.3,0.1-0.4,0.1L274.6,216z M274.6,210.5v0.7l-0.6-0.9c0.1-0.1,0.2-0.1,0.4-0.2L274.6,210.5
				L274.6,210.5z M274.6,215.2l-2.3-4.1v0.8l2.3,4.1V215.2L274.6,215.2z M272.4,217.3v-0.9l0.4,0.8
				C272.6,217.2,272.5,217.2,272.4,217.3L272.4,217.3z M272.4,211.1v0.8l-0.4-0.7C272.1,211.2,272.2,211.1,272.4,211.1L272.4,211.1
				L272.4,211.1z M272.4,216.3l-2.1-4.5l-0.2,0.1v0.5l2.3,4.9V216.3L272.4,216.3z M270.1,218v-0.6l0.2,0.5L270.1,218z M270.1,211.9
				v0.5l-0.2-0.4C269.9,212,270,211.9,270.1,211.9L270.1,211.9z M270.1,217.4v0.6l-0.2,0.1l-2.1-5.4v0c0.1,0,0.3-0.1,0.4-0.1
				L270.1,217.4L270.1,217.4z M267.8,218.6L267.8,218.6L267.8,218.6L267.8,218.6z M267.8,212.6L267.8,212.6L267.8,212.6L267.8,212.6
				L267.8,212.6z M267.8,218.5L267.8,218.5c-0.1,0.1-0.3,0.1-0.4,0.1l-1.8-5.5c0.1,0,0.3-0.1,0.4-0.1L267.8,218.5L267.8,218.5z
				 M242.3,218.3V218l1.8-5.1c0.1,0,0.3,0.1,0.4,0.1l-2,5.4L242.3,218.3L242.3,218.3z M242.3,212.6v-0.3l0.1,0L242.3,212.6
				L242.3,212.6z M246.7,213.4l-1.6,5.5c-0.1,0-0.3-0.1-0.4-0.1l1.6-5.5C246.4,213.3,246.6,213.4,246.7,213.4L246.7,213.4z
				 M248.8,213.8l-1.2,5.6c-0.1,0-0.3,0-0.4-0.1l1.2-5.6C248.6,213.7,248.7,213.7,248.8,213.8L248.8,213.8z M251,214l-0.8,5.6
				c-0.1,0-0.3,0-0.4,0l0.8-5.6C250.7,214,250.8,214,251,214L251,214z M253.1,214.2l-0.5,5.7c-0.1,0-0.3,0-0.4,0l0.5-5.7
				C252.9,214.2,253,214.2,253.1,214.2L253.1,214.2z M255.3,214.2l-0.1,5.7c-0.1,0-0.3,0-0.4,0l0.1-5.7
				C255,214.2,255.2,214.2,255.3,214.2L255.3,214.2z M257.4,214.2l0.3,5.7c-0.1,0-0.3,0-0.4,0l-0.3-5.7
				C257.2,214.2,257.3,214.2,257.4,214.2L257.4,214.2z M259.6,214.1l0.6,5.7c-0.1,0-0.3,0-0.4,0l-0.6-5.7
				C259.3,214.1,259.5,214.1,259.6,214.1L259.6,214.1z M261.7,213.8l1,5.6c-0.1,0-0.3,0-0.4,0.1l-1-5.6
				C261.5,213.9,261.6,213.9,261.7,213.8L261.7,213.8z M263.9,213.5l1.4,5.6c-0.1,0-0.3,0-0.4,0.1l-1.4-5.6
				C263.6,213.6,263.7,213.5,263.9,213.5z M242.3,212.3v0.3l-2.2,5.1l-0.1,0v-0.8l2-4.7C242.1,212.2,242.2,212.3,242.3,212.3
				L242.3,212.3z M242.3,218v0.3l-0.1,0L242.3,218L242.3,218z M240,212.2v-0.7c0.1,0,0.2,0.1,0.3,0.1L240,212.2z M240,211.5v0.7
				l-2.3,4.4v-0.9L240,211.5L240,211.5L240,211.5z M240,216.9v0.8l-0.3-0.1L240,216.9L240,216.9z M237.7,211.6l0.5-0.8
				c-0.1-0.1-0.3-0.1-0.4-0.2l-0.1,0.2V211.6z M237.7,210.8v0.8l-2.3,3.8v-0.8L237.7,210.8L237.7,210.8z M237.7,215.8v0.9l-0.1,0.2
				c-0.1,0-0.3-0.1-0.4-0.1L237.7,215.8L237.7,215.8z M235.5,210.9l0.7-1c-0.1-0.1-0.2-0.1-0.4-0.2l-0.3,0.4V210.9z M235.5,210.2
				v0.7l-2.2,3.2v-0.7L235.5,210.2L235.5,210.2z M235.5,214.6v0.8l-0.3,0.5c-0.1-0.1-0.2-0.1-0.4-0.2L235.5,214.6L235.5,214.6z
				 M233.2,209.9v-0.7l0.5-0.6c0.1,0.1,0.2,0.1,0.4,0.2L233.2,209.9z M233.2,209.3v0.7l-2.9,3.6c-0.1-0.1-0.2-0.1-0.3-0.2v-0.1
				L233.2,209.3L233.2,209.3z M233.2,213.4l-0.9,1.2c0.1,0.1,0.2,0.1,0.4,0.2l0.5-0.7V213.4L233.2,213.4z M230.1,209.9l2-2.2
				c-0.1-0.1-0.2-0.1-0.3-0.2l-1.7,1.9V209.9L230.1,209.9z M230.1,206.4v-0.1V206.4L230.1,206.4z M230.1,206.3v0.1l-2.1,2v-0.6
				l1.9-1.8C229.9,206.1,230,206.2,230.1,206.3L230.1,206.3z M230.1,209.3v0.6l-2.1,2.3l0,0v-0.5L230.1,209.3L230.1,209.3z
				 M230.1,213.2v0.1l-0.1,0L230.1,213.2L230.1,213.2z M227.9,205.1v-0.5c0.1,0.1,0.2,0.2,0.3,0.3L227.9,205.1z M227.9,204.6v0.5
				l-2,1.7v-0.5L227.9,204.6L227.9,204.6L227.9,204.6z M227.9,207.9v0.6l-2,2v-0.6L227.9,207.9L227.9,207.9z M227.9,211.6v0.5
				c-0.1-0.1-0.2-0.1-0.3-0.2L227.9,211.6L227.9,211.6z M225.9,203.7v-0.5l0.2-0.2c0.1,0.1,0.2,0.2,0.3,0.3L225.9,203.7z
				 M225.9,203.2v0.5l-2,1.4v-0.5L225.9,203.2L225.9,203.2z M225.9,206.3v0.5l-2,1.7V208L225.9,206.3L225.9,206.3z M225.9,209.8v0.6
				l-0.2,0.2c-0.1-0.1-0.2-0.2-0.3-0.2L225.9,209.8L225.9,209.8z M224,202v-0.5l0.5-0.3c0.1,0.1,0.2,0.2,0.3,0.3L224,202z
				 M224,201.5v0.5l-2.8,1.8v-0.5L224,201.5L224,201.5z M224,204.6v0.5l-2.6,1.9c-0.1-0.1-0.2-0.2-0.3-0.3v-0.1L224,204.6L224,204.6
				z M224,208v0.5l-0.5,0.4c-0.1-0.1-0.2-0.2-0.3-0.3L224,208L224,208z M221.1,200.8v-0.5l1.8-1c0.1,0.1,0.2,0.2,0.3,0.3
				L221.1,200.8L221.1,200.8z M221.1,197.9v-0.4l0.3-0.1c0.1,0.1,0.2,0.2,0.2,0.3L221.1,197.9z M220.3,195.5l-2.4,0.9V196l2.2-0.9
				C220.2,195.3,220.3,195.4,220.3,195.5L220.3,195.5z M221.1,197.5v0.4l-3.2,1.5V199L221.1,197.5L221.1,197.5z M221.1,200.3v0.5
				l-3.2,1.8v-0.5L221.1,200.3L221.1,200.3z M221.1,203.4v0.5l-1.7,1.1c-0.1-0.1-0.2-0.2-0.3-0.3L221.1,203.4L221.1,203.4z
				 M221.1,206.7L221.1,206.7L221.1,206.7L221.1,206.7L221.1,206.7z M217.9,193.7v-0.4l1.1-0.3l0.1,0.1c0,0.1,0.1,0.2,0.1,0.2
				L217.9,193.7z M217.9,196.5l-3.7,1.5c-0.1-0.1-0.1-0.2-0.2-0.4l3.9-1.5V196.5L217.9,196.5z M217.9,193.3v0.4l-5.1,1.6
				c-0.1-0.1-0.1-0.2-0.2-0.4L217.9,193.3L217.9,193.3z M217.9,199v0.4l-2.2,1c-0.1-0.1-0.2-0.2-0.2-0.3L217.9,199L217.9,199z
				 M217.9,202.1v0.5l-0.4,0.2c-0.1-0.1-0.2-0.2-0.3-0.3L217.9,202.1z"/>
			<path class="st19" d="M220.3,195.5l-6.1,2.4c-0.1-0.1-0.1-0.2-0.2-0.4l6.1-2.4C220.2,195.3,220.3,195.4,220.3,195.5L220.3,195.5z
				 M221.6,197.7l-5.9,2.8c-0.1-0.1-0.2-0.2-0.2-0.3l5.9-2.8C221.5,197.4,221.6,197.5,221.6,197.7L221.6,197.7z M223.1,199.7
				l-5.6,3.1c-0.1-0.1-0.2-0.2-0.3-0.3l5.6-3.1C223,199.4,223,199.6,223.1,199.7L223.1,199.7z M224.7,201.5l-5.4,3.5
				c-0.1-0.1-0.2-0.2-0.3-0.3l5.4-3.5C224.5,201.3,224.6,201.4,224.7,201.5L224.7,201.5z M226.4,203.3l-5.1,3.8
				c-0.1-0.1-0.2-0.2-0.3-0.3l5.1-3.8C226.2,203.1,226.3,203.2,226.4,203.3L226.4,203.3z M228.3,204.9l-4.8,4
				c-0.1-0.1-0.2-0.2-0.3-0.3l4.8-4C228,204.7,228.1,204.8,228.3,204.9L228.3,204.9z M230.1,206.3l-4.4,4.3
				c-0.1-0.1-0.2-0.2-0.3-0.2l4.4-4.3C229.9,206.2,230,206.2,230.1,206.3L230.1,206.3z M232.1,207.6l-4.1,4.5
				c-0.1-0.1-0.2-0.1-0.3-0.2l4.1-4.5C231.9,207.5,232,207.6,232.1,207.6L232.1,207.6z M234.1,208.8l-3.8,4.7
				c-0.1-0.1-0.2-0.1-0.4-0.2l3.8-4.7C233.9,208.7,234,208.8,234.1,208.8L234.1,208.8z M236.1,209.9l-3.4,4.9
				c-0.1-0.1-0.2-0.1-0.4-0.2l3.4-4.9C235.9,209.8,236,209.8,236.1,209.9L236.1,209.9z M238.2,210.8l-3,5.1
				c-0.1-0.1-0.2-0.1-0.4-0.2l3-5.1C238,210.7,238.1,210.8,238.2,210.8L238.2,210.8z M240.3,211.6l-2.7,5.2c-0.1,0-0.3-0.1-0.4-0.1
				l2.7-5.2C240,211.5,240.2,211.6,240.3,211.6L240.3,211.6z M242.4,212.3l-2.3,5.3c-0.1,0-0.3-0.1-0.4-0.1l2.3-5.3
				C242.2,212.3,242.3,212.3,242.4,212.3L242.4,212.3z M244.5,212.9l-2,5.4c-0.1,0-0.3-0.1-0.4-0.1l2-5.4
				C244.3,212.9,244.4,212.9,244.5,212.9L244.5,212.9z M246.7,213.4l-1.6,5.5c-0.1,0-0.3-0.1-0.4-0.1l1.6-5.5
				C246.4,213.3,246.6,213.4,246.7,213.4L246.7,213.4z M248.8,213.8l-1.2,5.6c-0.1,0-0.3,0-0.4-0.1l1.2-5.6
				C248.6,213.7,248.7,213.7,248.8,213.8L248.8,213.8z M251,214l-0.8,5.6c-0.1,0-0.3,0-0.4,0l0.8-5.6C250.7,214,250.8,214,251,214
				L251,214z M253.1,214.2l-0.5,5.7c-0.1,0-0.3,0-0.4,0l0.5-5.7C252.9,214.2,253,214.2,253.1,214.2L253.1,214.2z M255.3,214.2
				l-0.1,5.7c-0.1,0-0.3,0-0.4,0l0.1-5.7C255,214.2,255.2,214.2,255.3,214.2L255.3,214.2z M257.4,214.2l0.3,5.7c-0.1,0-0.3,0-0.4,0
				l-0.3-5.7C257.2,214.2,257.3,214.2,257.4,214.2L257.4,214.2z M259.6,214.1l0.6,5.7c-0.1,0-0.3,0-0.4,0l-0.6-5.7
				C259.3,214.1,259.5,214.1,259.6,214.1L259.6,214.1z M261.7,213.8l1,5.6c-0.1,0-0.3,0-0.4,0.1l-1-5.6
				C261.5,213.9,261.6,213.9,261.7,213.8L261.7,213.8z M263.9,213.5l1.4,5.6c-0.1,0-0.3,0-0.4,0.1l-1.4-5.6
				C263.6,213.6,263.7,213.5,263.9,213.5L263.9,213.5z M266,213.1l1.8,5.5c-0.1,0-0.3,0.1-0.4,0.1l-1.8-5.5
				C265.8,213.1,265.9,213.1,266,213.1L266,213.1z M268.1,212.5l2.1,5.4c-0.1,0-0.3,0.1-0.4,0.1l-2.1-5.4
				C267.9,212.6,268,212.5,268.1,212.5L268.1,212.5z M270.3,211.8l2.5,5.3c-0.1,0-0.3,0.1-0.4,0.1l-2.5-5.3
				C270,211.9,270.1,211.9,270.3,211.8L270.3,211.8z M272.4,211.1l2.9,5.2c-0.1,0.1-0.3,0.1-0.4,0.1l-2.9-5.2
				C272.1,211.2,272.2,211.1,272.4,211.1L272.4,211.1z M274.4,210.2l3.2,5c-0.1,0.1-0.2,0.1-0.4,0.2l-3.2-5
				C274.2,210.3,274.3,210.2,274.4,210.2L274.4,210.2z M276.5,209.2l3.6,4.8c-0.1,0.1-0.2,0.1-0.4,0.2l-3.6-4.8
				C276.2,209.3,276.4,209.2,276.5,209.2L276.5,209.2z M278.5,208l3.9,4.6c-0.1,0.1-0.2,0.1-0.4,0.2l-3.9-4.6
				C278.3,208.1,278.4,208.1,278.5,208L278.5,208z M280.4,206.7l4.3,4.4c-0.1,0.1-0.2,0.2-0.3,0.2l-4.3-4.4
				C280.2,206.9,280.3,206.8,280.4,206.7L280.4,206.7z M282.4,205.3l4.6,4.2c-0.1,0.1-0.2,0.2-0.3,0.3l-4.6-4.2
				C282.1,205.5,282.2,205.4,282.4,205.3L282.4,205.3z M284.2,203.8l4.9,3.9c-0.1,0.1-0.2,0.2-0.3,0.3l-4.9-3.9
				C284,204,284.1,203.9,284.2,203.8L284.2,203.8z M285.9,202.1l5.2,3.6c-0.1,0.1-0.2,0.2-0.3,0.3l-5.2-3.6
				C285.7,202.3,285.8,202.2,285.9,202.1L285.9,202.1z M287.6,200.3l5.5,3.3c-0.1,0.1-0.2,0.2-0.3,0.3l-5.5-3.3
				C287.4,200.5,287.5,200.4,287.6,200.3L287.6,200.3z M289.1,198.3l5.8,3c-0.1,0.1-0.2,0.2-0.2,0.3l-5.8-3
				C288.9,198.5,289,198.4,289.1,198.3L289.1,198.3z M290.4,196.2l6,2.6c-0.1,0.1-0.1,0.2-0.2,0.3l-6-2.6
				C290.3,196.5,290.4,196.4,290.4,196.2L290.4,196.2z M291.6,194l6.2,2.2c-0.1,0.1-0.1,0.2-0.2,0.4l-6.2-2.2c0-0.1,0.1-0.1,0.1-0.2
				L291.6,194L291.6,194z M219.2,193.3l-6.3,2c-0.1-0.1-0.1-0.2-0.2-0.4l6.3-2l0.1,0.1C219.1,193.1,219.1,193.2,219.2,193.3z"/>
		</g>
	</g>
	<g>
		<rect x="205.7" y="181.8" class="st20" width="96.9" height="2.5"/>
		<g>
			<rect x="250.8" y="175.5" class="st20" width="2.6" height="8.7"/>
			<rect x="255" y="175.5" class="st20" width="2.6" height="8.7"/>
		</g>
	</g>
	<polyline class="st21" points="150,173.7 150,152.9 360.2,154.4 360.2,175.2 	"/>
	<rect x="221.4" y="150.6" class="st22" width="13.3" height="6.1"/>
	<rect x="286.8" y="150.6" class="st22" width="13.3" height="6.1"/>
	<path class="st23" d="M309.6,235.2v-18.3l61.3-27.7l0,0v-45.7h-8.6c0,0,1,9.7-2.7,20.6c-3.8,10.9-24.8,16.2-24.8,16.2h-33.1
		c-7.8,21.9-25.5,37.3-46.3,37.8c-20.8-0.5-38.6-15.9-46.3-37.8h-33.1c0,0-21-5.3-24.8-16.2c-3.8-10.9-2.7-20.6-2.7-20.6h-8.6v45.7
		l0,0l61.3,27.7v18.3h-78.4v15.5h262v-15.5H309.6z"/>
	<g>
		<polyline class="st21" points="207.9,189.3 230.5,177.8 230.5,171.9 		"/>
		<polyline class="st21" points="305.2,189.3 282.6,177.8 282.6,172 		"/>
		<g>
			<circle class="st17" cx="207.9" cy="189.1" r="12.5"/>
			<circle class="st24" cx="207.9" cy="189.1" r="3.9"/>
		</g>
		<g>
			<circle class="st17" cx="304.5" cy="189.1" r="12.5"/>
			<circle class="st24" cx="304.5" cy="189.1" r="3.9"/>
		</g>
	</g>
</g>
<g>
	<g>
		<polygon class="st2" points="311.7,391.6 311.3,391.6 311.3,400.4 311.7,400.4 316.7,398 316.8,394.1 		"/>
		<path class="st25" d="M320,395.6l-3.2-1.6l0,4l3.2-1.5C320.3,396.3,320.3,395.8,320,395.6z"/>
	</g>
	<polygon class="st26" points="311.3,399.5 311.3,400.4 311.7,400.4 316.7,398 316.7,396.5 311.5,397.8 	"/>
	<path class="st27" d="M311.5,393.6l0-1.9l-70.1-0.3l0,0l-10.3,0c0,0,0,0,0,0l-3.9,0c-0.4,0-0.6,0.3-0.6,0.6l0,7.5
		c0,0.3,0.3,0.6,0.6,0.6l3.3,0v0h0l10.9,0v0l70.1,0.3l0-2.6l0,0L311.5,393.6L311.5,393.6z"/>
	<rect x="220.6" y="391.9" class="st28" width="6" height="7.9"/>
	<rect x="226.6" y="394.1" class="st25" width="84.9" height="1.8"/>
</g>
<g>
	<path class="st29" d="M23.2,57.8c0,0,27.5-11.1,43.3-32.2c0,0,24.8,20.6,54.4,13.2c0,0-10,14.3-18,19c0,0,4.8,28.5-30.9,22.2
		C72,80,51.2,75.2,23.2,57.8z"/>
	<path class="st30" d="M101.6,56.9c0,0,26.1-23.4,30.3-31.4c0,0,13.8,5.8-11.8,31.4c-19.3,19.3-22.9,19-22.9,19
		S103.9,66.7,101.6,56.9z"/>
</g>
<path class="st29" d="M371.7,92c0,0,28.6-11.7,44.9-31.1c0,0,18.9,18.3,25.1,20.6c0,0-10.1,16.3-39.5,28.6
	C402.2,110.2,377.9,93.6,371.7,92z"/>
<g>
	<defs>
		<rect id="XMLID_1_" x="-0.1" y="273.8" width="500.2" height="225.2"/>
	</defs>
	<clipPath id="XMLID_3_">
		<use xlink:href="#XMLID_1_"  style="overflow:visible;"/>
	</clipPath>
	<g class="st31">
		<g>
			<g>
				<g>
					<path class="st32" d="M191.1,356.9c7.2-4,14.4-8,21.8-12.3c6.4-3.9,11.9-9.8,1.1-10.5c-4.3-0.3-8.9,5.4-15.2,2.6
						c-7.4-3.3,12.6-22.5,17.9-29.3c6.8-8.7,1.5-11.7-5.5-5.9c-6.7,5.8-13.2,11.3-20.1,16.7c2.4-7.8,3.4-9.4,7.9-20
						c2.8-6.6,10.6-21.6,2.8-21.1c-5.2,0.4-8.8,12.9-11.2,17.4c-3.2,6.7-10.2,20.2-10.2,20.2c-1.2-1.2,2.4-16.6,5.9-28.8
						c1.2-4.2,1.9-11.3-3.8-8.8c-4.6,2-5.9,10.4-7.8,17c-1.4,4.8-10.2,30-10.8,13.8c-0.2-6.7,0.7-19.7-5.1-15.2
						c-3.8,2.9-6.5,19.4-6.8,34.5c-0.3,11.6,2.9,20.4-2.1,31l18.6,6.7l13.6,4.7C184.3,363,185.3,360.5,191.1,356.9z"/>
					<path class="st33" d="M131.8,530.5c1.7-11.7,4.2-24.9,7.8-39.7c7.3-29.8,19.2-65.9,38.4-108.1l-35.9-11l0.3-0.6
						c-3.7,6.4-22.9,39.9-42.7,83.6c-8,17.6-16.1,36.8-23.3,56.5c-3.2,8.7-6.2,17.6-9,26.4C95.1,538.5,120.2,533.4,131.8,530.5z
						 M141.9,380.7c0.9-1.1,2.5-1.3,3.6-0.4c1.1,0.9,1.3,2.5,0.4,3.6c-0.9,1.1-2.5,1.3-3.6,0.4C141.2,383.4,141,381.8,141.9,380.7z
						 M137.2,395.1c-1.1-0.9-1.3-2.5-0.4-3.6c0.9-1.1,2.5-1.3,3.6-0.4c1.1,0.9,1.3,2.5,0.4,3.6C139.9,395.8,138.3,396,137.2,395.1z"
						/>
					<polygon class="st15" points="178.1,382.7 183.7,370.1 182,369.5 168.4,364.8 149,358 142.5,371.1 142.2,371.7 					"/>
				</g>
				<circle class="st15" cx="139" cy="392.5" r="4"/>
			</g>
			<circle class="st15" cx="144.3" cy="382.2" r="4"/>
		</g>
		<g>
			<g>
				<g>
					<path class="st32" d="M338,379.3c-5.2-6.4-10.5-12.7-15.7-19.5c-4.5-6-7.5-13.5,2.9-10.1c4.1,1.3,6.3,8.3,13.2,8
						c8.2-0.4-3.4-25.5-5.8-33.8c-3.1-10.5,2.9-11.4,7.3-3.5c4,7.9,8.1,15.4,12.5,22.9c0.6-8.1,0.3-10,0-21.5
						c-0.2-7.2-1.9-24,5.2-20.6c4.7,2.3,3.4,15.2,4,20.3c0.5,7.4,2,22.6,2,22.6c1.5-0.7,3.9-16.4,5.2-29c0.4-4.3,2.4-11.2,6.8-6.8
						c3.5,3.5,1.6,11.9,1,18.7c-0.5,5-1.6,31.7,4.9,16.9c2.7-6.1,6.6-18.5,10.4-12.3c2.5,4.1-1.1,20.4-6.4,34.5
						c-4.1,10.9-10.3,17.9-9.5,29.6l-19.8-0.6l-14.4-0.6C342,387.5,342,384.8,338,379.3z"/>
					<path class="st33" d="M386.2,593c0.7-9.3,1.1-18.6,1.3-27.9c0.5-21.1,0.1-41.9-0.8-61.2c-2.3-48-7.8-86.2-8.9-93.5l0.1,0.6
						l-37.4-3.1c2.3,46.3,0,84.3-4.2,114.7c-2.1,15.1-4.7,28.4-7.4,39.8C338.7,569.5,360.2,583.5,386.2,593z M373.2,422.8
						c-1.4,0.4-2.8-0.4-3.2-1.7c-0.4-1.4,0.4-2.8,1.7-3.2c1.4-0.4,2.8,0.4,3.2,1.7C375.3,421,374.5,422.4,373.2,422.8z M370.8,433
						c-0.4-1.4,0.4-2.8,1.7-3.2c1.4-0.4,2.8,0.4,3.2,1.7c0.4,1.4-0.4,2.8-1.7,3.2C372.6,435.1,371.2,434.3,370.8,433z"/>
					<polygon class="st15" points="340.6,408.1 340,394.2 341.8,394.3 356.1,395 376.6,395.9 377.9,410.5 378,411.1 					"/>
				</g>
				
					<ellipse transform="matrix(0.3691 -0.9294 0.9294 0.3691 -165.6694 619.2061)" class="st15" cx="373.2" cy="431.6" rx="4" ry="4"/>
			</g>
			
				<ellipse transform="matrix(0.3691 -0.9294 0.9294 0.3691 -155.6637 610.8502)" class="st15" cx="372.1" cy="420.1" rx="4" ry="4"/>
		</g>
	</g>
</g>
<path class="st1" d="M51.9,324.3l-9.7,5.2c0,0,28.5,14.3,32.8,14.5l19.5-9.9L66,323.1L51.9,324.3z"/>
<path class="st29" d="M95.7,331.7c0,0-19.3-7.9-30.3-21c0,0-12.8,12.4-17,13.9c0,0,6.8,11,26.7,19.3C75.1,344,91.5,332.7,95.7,331.7
	z"/>
</svg>
